HIERARCHY
ROOT root
{
	OFFSET 0.000000 0.000000 0.000000
	CHANNELS 6 Xposition Yposition Zposition Zrotation Yrotation Xrotation
	JOINT lhip
	{
		OFFSET 0.058581 -0.082280 -0.017664
		CHANNELS 3 Zrotation Yrotation Xrotation
		JOINT lknee
		{
			OFFSET 0.043451 -0.386469 0.008037
			CHANNELS 3 Zrotation Yrotation Xrotation
			JOINT lankle
			{
				OFFSET -0.014790 -0.426874 -0.037428
				CHANNELS 3 Zrotation Yrotation Xrotation
				JOINT ltoe
				{
					OFFSET 0.041054 -0.060286 0.122042
					CHANNELS 3 Zrotation Yrotation Xrotation
					End Site
					{
						OFFSET 0.000000 0.000000 0.000000
					}
				}
			}
		}
	}
	JOINT rhip
	{
		OFFSET -0.060310 -0.090513 -0.013543
		CHANNELS 3 Zrotation Yrotation Xrotation
		JOINT rknee
		{
			OFFSET -0.043257 -0.383688 -0.004843
			CHANNELS 3 Zrotation Yrotation Xrotation
			JOINT rankle
			{
				OFFSET 0.019056 -0.420046 -0.034562
				CHANNELS 3 Zrotation Yrotation Xrotation
				JOINT rtoe
				{
					OFFSET -0.034840 -0.062106 0.130323
					CHANNELS 3 Zrotation Yrotation Xrotation
					End Site
					{
						OFFSET 0.000000 0.000000 0.000000
					}
				}
			}
		}
	}
	JOINT lowerback
	{
		OFFSET 0.004439 0.124404 -0.038385
		CHANNELS 3 Zrotation Yrotation Xrotation
		JOINT upperback
		{
			OFFSET 0.004488 0.137956 0.026820
			CHANNELS 3 Zrotation Yrotation Xrotation
			JOINT chest
			{
				OFFSET -0.002265 0.056032 0.002855
				CHANNELS 3 Zrotation Yrotation Xrotation
				JOINT lowerneck
				{
					OFFSET -0.013390 0.211636 -0.033468
					CHANNELS 3 Zrotation Yrotation Xrotation
					JOINT upperneck
					{
						OFFSET 0.010113 0.088937 0.050410
						CHANNELS 3 Zrotation Yrotation Xrotation
						End Site
						{
							OFFSET 0.000000 0.000000 0.000000
						}
					}
				}
				JOINT lclavicle
				{
					OFFSET 0.071702 0.114000 -0.018898
					CHANNELS 3 Zrotation Yrotation Xrotation
					JOINT lshoulder
					{
						OFFSET 0.122921 0.045205 -0.019046
						CHANNELS 3 Zrotation Yrotation Xrotation
						JOINT lelbow
						{
							OFFSET 0.255332 -0.015649 -0.022946
							CHANNELS 3 Zrotation Yrotation Xrotation
							JOINT lwrist
							{
								OFFSET 0.265709 0.012698 -0.007375
								CHANNELS 3 Zrotation Yrotation Xrotation
								End Site
								{
									OFFSET 0.000000 0.000000 0.000000
								}
							}
						}
					}
				}
				JOINT rclavicle
				{
					OFFSET -0.082954 0.112472 -0.023707
					CHANNELS 3 Zrotation Yrotation Xrotation
					JOINT rshoulder
					{
						OFFSET -0.113228 0.046853 -0.008472
						CHANNELS 3 Zrotation Yrotation Xrotation
						JOINT relbow
						{
							OFFSET -0.260127 -0.014369 -0.031269
							CHANNELS 3 Zrotation Yrotation Xrotation
							JOINT rwrist
							{
								OFFSET -0.269108 0.006794 -0.006027
								CHANNELS 3 Zrotation Yrotation Xrotation
								End Site
								{
									OFFSET 0.000000 0.000000 0.000000
								}
							}
						}
					}
				}
			}
		}
	}
}
MOTION
Frames: 11
Frame Time: 0.033333
-2.070235 0.736257 0.999237 28.084788 -0.045615 89.259165 3.432139 -2.585917 -14.674439 -2.457486 12.449394 34.541345 3.370523 4.243293 -16.391961 0.000000 -0.000000 0.000000 3.030979 -5.754149 -6.598824 -5.533036 -15.967284 13.622350 -2.523458 -11.692035 -11.786400 0.000000 -0.000000 0.000000 -1.182577 2.504520 13.751683 -1.876471 -2.943174 3.522055 3.424501 0.194809 -3.111715 -4.683689 19.244464 -8.657728 -1.679238 25.140432 -7.646343 -21.409580 -24.729080 4.704046 -71.984721 -21.472564 30.592065 -78.813721 -74.270925 106.185907 -13.221130 -17.393292 -43.137546 20.970270 31.021150 13.189551 68.007773 29.863625 24.012007 -8.707979 25.834762 8.540971 -7.955524 3.076589 1.501986 
-2.074043 0.738972 0.997968 33.073291 -0.137124 89.745685 3.352330 -1.135220 -13.556402 -1.477901 15.182794 34.095862 3.263478 6.042188 -16.383314 0.000000 -0.000000 0.000000 2.978428 -6.348212 -7.472640 -5.687196 -18.463373 14.359771 -2.865150 -13.178029 -12.010176 0.000000 -0.000000 0.000000 -1.346536 2.412961 13.233875 -1.350130 -2.794282 3.126649 3.511255 0.179651 -2.825601 -3.199704 17.287874 -8.404038 -0.796883 22.713190 -6.567014 -20.894552 -24.754050 4.677637 -72.053422 -23.037429 31.838148 -76.469093 -73.446702 102.641070 -11.873756 -17.476415 -43.595755 20.855972 29.661114 12.142579 68.194513 29.666208 24.967365 -7.220720 26.533441 9.761454 -7.853443 3.803906 1.119804 
-2.076663 0.742483 0.997485 37.646601 -0.225996 90.076344 3.040032 -0.166281 -12.372052 -1.343918 16.014554 32.366503 4.025053 6.966351 -15.469587 0.000000 -0.000000 0.000000 3.051169 -6.921987 -8.141705 -6.137627 -20.441927 14.854175 -3.382844 -14.983784 -11.893895 0.000000 -0.000000 0.000000 -1.185164 2.092110 13.110073 -1.125445 -2.520314 2.357541 3.665901 -0.007252 -2.564947 -2.461069 14.726734 -7.602019 0.249036 20.858522 -6.109152 -21.145495 -24.356882 4.904659 -71.950528 -23.325422 31.862623 -77.106585 -72.919160 103.549102 -12.263491 -17.041971 -44.154576 20.909100 29.444287 12.148331 68.040094 29.383829 25.054109 -6.216787 26.696851 10.968230 -8.532328 3.728936 0.534106 
-2.077724 0.747155 0.997471 42.159145 -0.575151 90.352326 1.952268 -0.295020 -10.816920 -1.884380 15.401737 27.764483 3.284541 6.256890 -13.670857 0.000000 -0.000000 0.000000 2.541302 -7.519873 -8.690165 -6.633102 -22.754426 15.305016 -3.714998 -16.012021 -11.558021 0.000000 -0.000000 0.000000 -0.958097 1.610761 12.556276 -1.186457 -2.821457 3.158722 3.546057 0.125432 -2.991490 -1.763416 12.441255 -7.329119 1.117575 19.029530 -5.967256 -20.977969 -24.184737 5.043385 -72.367423 -22.710445 31.919022 -76.947865 -74.559366 104.500212 -14.685179 -17.099879 -42.783659 20.862449 30.028401 11.917529 68.103784 29.005716 24.712577 -6.786494 25.915866 11.316519 -3.436989 3.120291 1.529794 
-2.078892 0.752285 0.997306 46.320173 -0.851451 90.972414 0.962856 -0.377195 -9.826986 -2.731762 13.933124 22.468299 4.191367 6.091532 -13.620773 0.000000 -0.000000 0.000000 2.090276 -7.938533 -9.757874 -7.043842 -24.433827 15.944966 -3.897011 -17.833046 -10.955825 0.000000 -0.000000 0.000000 -1.124681 1.258848 11.800933 -0.835756 -2.656816 3.211531 3.462955 0.339025 -2.776742 -0.888530 10.424786 -7.558549 2.337061 16.626140 -5.068255 -20.764034 -24.029027 4.667403 -71.878675 -23.569088 33.008634 -77.083427 -73.984960 103.191098 -13.423704 -17.647515 -44.294011 20.567471 29.706630 10.866266 68.447199 28.500481 25.481067 -7.606066 24.977518 10.413916 -0.507496 2.081813 2.495484 
-2.078865 0.757053 0.998101 50.243603 -0.794901 90.771092 0.216049 -1.067641 -8.341861 -3.208353 11.525546 18.733013 4.486734 6.280398 -13.709691 0.000000 -0.000000 0.000000 1.905543 -8.391522 -9.545011 -7.376420 -25.795879 16.047901 -3.963405 -19.272931 -10.362062 0.000000 -0.000000 0.000000 -0.755004 1.049969 11.995586 -0.704287 -2.705245 3.351255 3.465284 0.622571 -2.879865 -0.272224 8.550784 -7.811461 3.380466 14.545827 -4.426412 -20.690753 -23.867692 4.255313 -71.676584 -23.879500 33.843298 -77.198283 -73.669998 102.597292 -11.919960 -16.301226 -43.543069 21.046767 29.846610 10.542885 67.841760 27.904466 25.347423 -7.740909 23.352649 9.795468 -0.460184 2.267651 4.400848 
-2.077639 0.762794 0.998024 53.701209 -0.797040 90.843165 -0.783731 -2.431701 -7.159788 -3.167855 8.067085 15.280260 4.680997 6.915919 -13.694924 0.000000 -0.000000 0.000000 1.394183 -8.456229 -10.157402 -7.718521 -26.674723 17.312039 -4.622937 -20.676545 -9.571912 0.000000 -0.000000 0.000000 -0.404673 1.338062 11.700711 -0.522785 -2.465281 2.863477 3.788589 0.336136 -2.159686 0.061740 6.517551 -7.390427 4.100961 12.357351 -4.665563 -20.848372 -24.181468 4.816650 -72.673888 -23.994306 34.716924 -74.272576 -74.523333 98.195217 -9.763177 -14.638834 -41.709399 21.211314 29.837376 10.346735 67.140521 27.781287 24.737309 -7.056956 21.478570 9.642269 -3.028518 2.890971 6.606886 
-2.077869 0.768032 0.997421 56.900018 -0.861853 91.012173 -1.606312 -3.771262 -6.348023 -3.046360 5.550239 12.341671 5.393743 7.087880 -13.034081 0.000000 -0.000000 0.000000 0.834399 -8.103399 -11.323791 -8.451346 -27.466214 19.546212 -5.568677 -22.379279 -9.241253 0.000000 -0.000000 0.000000 -0.405492 1.028429 11.612081 -0.190515 -2.226806 2.886366 3.640066 0.554382 -2.255702 0.808335 5.145080 -7.926898 4.607734 10.076525 -4.145110 -20.359320 -23.470067 4.554041 -72.227272 -24.523679 34.517179 -74.624309 -74.380168 100.888878 -13.554314 -17.200449 -43.888786 21.504115 29.872226 10.579476 67.165985 27.557425 24.908454 -8.271449 20.936023 10.158681 -1.559388 1.954904 6.659983 
-2.078017 0.772589 0.997081 59.911836 -0.996195 90.976013 -2.159750 -4.483545 -6.641373 -3.252558 3.528063 11.874002 5.235386 6.512821 -12.622536 0.000000 -0.000000 0.000000 0.238048 -7.752194 -12.497944 -9.472598 -27.376216 22.451155 -6.225174 -23.051693 -9.292493 0.000000 -0.000000 0.000000 -0.559186 1.034951 11.890463 0.148537 -1.949941 2.419141 3.580675 0.495152 -2.029977 1.425452 3.796408 -8.343557 5.095022 7.640868 -3.797689 -20.578082 -23.371518 4.691658 -71.714215 -24.845516 34.649394 -74.053609 -74.352454 100.235533 -15.734376 -18.354592 -44.285658 22.162663 29.467440 10.615118 66.736475 27.344987 24.831895 -8.584852 21.106180 10.391925 0.105728 0.967904 7.254373 
-2.079129 0.775825 0.996976 62.863995 -0.693091 90.579781 -1.752771 -4.811217 -7.325248 -3.836821 1.798929 13.216566 5.274555 5.922912 -12.817245 0.000000 -0.000000 0.000000 0.334888 -6.760418 -12.645632 -9.381107 -24.905250 24.341953 -6.545670 -21.749839 -11.138899 0.000000 -0.000000 0.000000 -0.284232 0.927706 12.568636 0.397361 -1.929746 2.213122 3.498384 0.464646 -1.906564 1.790571 2.778498 -9.266208 5.429890 5.400452 -3.366663 -20.360303 -23.287109 4.095576 -72.003547 -24.514513 34.754377 -73.627028 -74.002832 100.252289 -14.000839 -17.442501 -43.482656 22.418930 29.569034 10.314593 66.701012 26.900427 24.459623 -8.430542 21.637533 10.940877 0.220652 1.077858 7.277862 
-2.080493 0.778243 0.996443 65.653789 -0.446303 90.294521 -1.497828 -5.531452 -8.034692 -4.239542 0.187620 14.431672 5.027561 6.204590 -12.766175 0.000000 -0.000000 0.000000 0.610137 -4.451419 -12.657332 -7.284260 -19.793520 25.094197 -4.745680 -16.938668 -15.288102 0.000000 -0.000000 0.000000 -0.240943 0.956465 12.756216 0.793929 -2.023389 2.463815 3.358221 0.467319 -1.744252 2.328786 3.001973 -10.261435 5.091142 2.383491 -3.094964 -20.112016 -23.189697 3.599896 -72.660453 -23.967829 35.744545 -72.921005 -74.431226 99.037196 -12.989066 -17.071573 -44.026622 23.123412 29.477514 10.289278 66.123403 27.225923 24.445075 -7.395794 21.564368 11.687833 -2.031029 2.485751 6.090159 
